<svg xmlns="http://www.w3.org/2000/svg" viewBox="0 0 400 300" width="406" height="306" class="illustration styles_illustrationTablet__1DWOa"><g id="_281_sad_face_outline" data-name="#281_sad_face_outline"><path d="M286.07,152.58a85.94,85.94,0,0,1-38.63,71.82,82.86,82.86,0,0,1-10.85,6.09q-3.81,1.8-7.81,3.22a86.16,86.16,0,0,1-57.56,0q-4-1.43-7.81-3.22a85.88,85.88,0,0,1-19-12.2A86.07,86.07,0,0,1,162,75.36h0a86.25,86.25,0,0,1,66.9-3.85s0,0,0,0A86.08,86.08,0,0,1,286.07,152.58Z" fill="#fff"></path><path d="M200,239.65a87.53,87.53,0,0,1-12.63-.91,86.46,86.46,0,0,1-16.49-4.09c-2.7-1-5.36-2.06-7.9-3.26a83,83,0,0,1-11-6.16,84,84,0,0,1-8.25-6.18A87.06,87.06,0,0,1,161.48,74.5l.08,0a87.25,87.25,0,0,1,67.65-3.9l.06,0h0A87.08,87.08,0,0,1,248,225.23a83.65,83.65,0,0,1-11,6.17c-2.53,1.19-5.19,2.29-7.89,3.25a86.37,86.37,0,0,1-16.5,4.09A87.29,87.29,0,0,1,200,239.65ZM162.51,76.21l-.08.05a85.07,85.07,0,0,0-17.37,141.27,82.73,82.73,0,0,0,8.05,6,81,81,0,0,0,10.72,6,82.45,82.45,0,0,0,7.73,3.19,83.87,83.87,0,0,0,16.1,4,86.4,86.4,0,0,0,24.67,0,83.79,83.79,0,0,0,16.11-4c2.65-.94,5.24-2,7.72-3.18a82.74,82.74,0,0,0,10.73-6A85.08,85.08,0,0,0,228.61,72.46l-.05,0a85.27,85.27,0,0,0-66.05,3.77Z" fill="#093f68"></path><rect x="193.73" y="162.98" width="12.4" height="16.23" fill="#ffbc0e"></rect><path d="M206.13,180.22h-12.4a1,1,0,0,1-1-1V163a1,1,0,0,1,1-1h12.4a1,1,0,0,1,1,1v16.24A1,1,0,0,1,206.13,180.22Zm-11.4-2h10.4V164h-10.4Z" fill="#093f68"></path><path d="M245,205.87l-1.43,20.92c-5.77,3.83-8.19,4.57-14.82,6.92a86.3,86.3,0,0,1-57.56,0c-6.63-2.35-7.13-1.65-12.89-5.48A117.67,117.67,0,0,1,154,199.86c-.12-14.31,16.25-26.77,30.62-26.77h30.68C233.07,173.09,245,184.75,245,205.87Z" fill="#F0BB5D"></path><path d="M200,239.65a86.83,86.83,0,0,1-29.12-5c-1.89-.67-3.3-1.1-4.44-1.45a25.74,25.74,0,0,1-8.67-4.15,1,1,0,0,1-.4-.54A119.47,119.47,0,0,1,153,199.87c0-6,2.73-12.18,7.84-17.33,6.39-6.45,15.5-10.45,23.78-10.45h30.68c18.93,0,30.69,12.94,30.69,33.78v.07l-1.44,20.92a1,1,0,0,1-.44.77c-5.52,3.66-8.14,4.59-13.88,6.62l-1.15.41A86.83,86.83,0,0,1,200,239.65ZM159.19,227.6a23.3,23.3,0,0,0,7.83,3.7c1.16.35,2.59.78,4.53,1.47a85.37,85.37,0,0,0,56.9,0l1.15-.41c5.6-2,8-2.82,13-6.13l1.4-20.39c0-19.88-10.74-31.75-28.69-31.75H184.66c-7.76,0-16.33,3.78-22.36,9.86-4.73,4.76-7.31,10.41-7.26,15.9A117.45,117.45,0,0,0,159.19,227.6ZM245,205.87h0Z" fill="#093f68"></path><path d="M171.22,234.71a1,1,0,0,1-1-1v-.12c0-5.08-1.06-11.77-2.08-18.23s-2.1-13.3-2.1-18.55a1,1,0,0,1,2,0c0,5.09,1.05,11.77,2.07,18.24s2.11,13.3,2.11,18.54v.12A1,1,0,0,1,171.22,234.71Z" fill="#093f68"></path><path d="M228.78,234.71a1,1,0,0,1-1-1c0-5.23.56-11.66,1.09-17.88S230,203.27,230,198.12a1,1,0,0,1,2,0c0,5.24-.55,11.67-1.09,17.89s-1.08,12.56-1.08,17.7A1,1,0,0,1,228.78,234.71Z" fill="#093f68"></path><polygon points="200 206.07 189.89 173.09 210.11 173.09 200 206.07" fill="#093f68"></polygon><path d="M200,207.07a1,1,0,0,1-1-.71l-10.1-33a1,1,0,0,1,.15-.88,1,1,0,0,1,.8-.41h20.22a1,1,0,0,1,.8.41,1,1,0,0,1,.15.88l-10.1,33A1,1,0,0,1,200,207.07Zm-8.75-33L200,202.66l8.75-28.57Z" fill="#093f68"></path><circle cx="200" cy="135.41" r="52.77" fill="#ffbc0e"></circle><path d="M200,189.18a53.77,53.77,0,1,1,53.77-53.77A53.83,53.83,0,0,1,200,189.18Zm0-105.54a51.77,51.77,0,1,0,51.77,51.77A51.82,51.82,0,0,0,200,83.64Z" fill="#093f68"></path><ellipse cx="184.94" cy="120.8" rx="6.91" ry="8.52" fill="#093f68"></ellipse><ellipse cx="215.06" cy="120.8" rx="6.91" ry="8.52" fill="#093f68"></ellipse><path d="M164.67,161.89c3.34-11,17.89-19.33,35.33-19.33s32,8.31,35.33,19.33" fill="#ffbc0e"></path><path d="M235.33,163.4a1.51,1.51,0,0,1-1.44-1.07c-3.2-10.58-17.46-18.27-33.89-18.27s-30.69,7.69-33.89,18.27a1.5,1.5,0,1,1-2.87-.87c3.58-11.82,19-20.4,36.76-20.4s33.18,8.58,36.76,20.4a1.49,1.49,0,0,1-1,1.87A1.61,1.61,0,0,1,235.33,163.4Z" fill="#093f68"></path><line x1="177.09" y1="112.28" x2="192.67" y2="110.09" fill="#ffbc0e"></line><path d="M177.09,113.78a1.5,1.5,0,0,1-.21-3l15.58-2.18a1.49,1.49,0,0,1,1.7,1.27,1.52,1.52,0,0,1-1.28,1.7l-15.58,2.18Z" fill="#093f68"></path><line x1="222.91" y1="112.28" x2="207.33" y2="110.09" fill="#ffbc0e"></line><path d="M222.91,113.78l-.21,0-15.58-2.18a1.52,1.52,0,0,1-1.28-1.7,1.49,1.49,0,0,1,1.7-1.27l15.58,2.18a1.5,1.5,0,0,1-.21,3Z" fill="#093f68"></path><path d="M200,239.65a1,1,0,0,1-1-1V206.07a1,1,0,0,1,2,0v32.58A1,1,0,0,1,200,239.65Z" fill="#093f68"></path><path d="M216.56,227.79a1,1,0,0,1-.54-.16l-6.46-4.24a1,1,0,0,1-.45-.83V209.64a1,1,0,0,1,1-1H223a1,1,0,0,1,1,1v12.92a1,1,0,0,1-.45.83l-6.46,4.24A1,1,0,0,1,216.56,227.79ZM211.11,222l5.45,3.58L222,222V210.64H211.11Zm11.91.54h0Z" fill="#093f68"></path><path d="M187.52,237.75a85,85,0,0,1-16.3-4q-4-1.43-7.81-3.22c4.4-16.71,14.3-38.09,14.3-38.09S165.1,183,164.26,178.46s.41-3.85.41-3.85a132.35,132.35,0,0,0,25.89,13.33C193.09,188.88,192.05,218,187.52,237.75Z" fill="#ffbc0e"></path><path d="M187.52,238.75h-.14a86.37,86.37,0,0,1-16.5-4.09c-2.7-1-5.36-2.06-7.9-3.26a1,1,0,0,1-.54-1.15c3.92-14.87,12.26-33.62,14-37.53-2.81-2.15-12.39-9.77-13.19-14.07-.53-2.78-.4-4.17.43-4.79a1.34,1.34,0,0,1,1.42-.13l.12.07A130.43,130.43,0,0,0,190.91,187c.67.25,2.7,1,1.78,18.83a200,200,0,0,1-4.2,32.14A1,1,0,0,1,187.52,238.75Zm-22.93-8.81c2.25,1,4.59,2,7,2.83a84.12,84.12,0,0,0,15.19,3.85c4.52-20.44,4.84-45.44,3.33-47.79A135,135,0,0,1,165,176a13.35,13.35,0,0,0,.27,2.25c.63,3.39,9.65,10.77,13.07,13.33a1,1,0,0,1,.31,1.22C178.52,193,169,213.63,164.59,229.94Z" fill="#093f68"></path><path d="M236.59,230.49q-3.81,1.8-7.81,3.22a85,85,0,0,1-16.3,4c-4.53-19.79-5.57-48.87-3-49.81A127,127,0,0,0,234.75,175s1.84-1,1,3.47-13.45,13.94-13.45,13.94S232.19,213.78,236.59,230.49Z" fill="#ffbc0e"></path><path d="M212.48,238.75a1,1,0,0,1-1-.78,200,200,0,0,1-4.2-32.14c-.92-17.82,1.11-18.58,1.78-18.83a125.38,125.38,0,0,0,25.09-12.83l.08,0a1.73,1.73,0,0,1,1.84.07c.89.64,1.08,2,.62,4.46-.8,4.29-10.38,11.91-13.19,14.06,1.77,3.91,10.11,22.66,14,37.53a1,1,0,0,1-.54,1.15c-2.54,1.2-5.2,2.3-7.9,3.26a86.37,86.37,0,0,1-16.5,4.09Zm-2.56-49.92c-1.51,2.35-1.19,27.35,3.33,47.79a84.12,84.12,0,0,0,15.19-3.85c2.38-.85,4.72-1.8,7-2.83-4.43-16.32-13.93-36.91-14-37.12a1,1,0,0,1,.31-1.22c3.42-2.56,12.44-9.94,13.07-13.32a8.13,8.13,0,0,0,.19-2.21A128.9,128.9,0,0,1,209.92,188.83Z" fill="#093f68"></path></g></svg>