<?xml version="1.0" standalone="no"?>
<!DOCTYPE svg PUBLIC "-//W3C//DTD SVG 20010904//EN"
 "http://www.w3.org/TR/2001/REC-SVG-20010904/DTD/svg10.dtd">
<svg version="1.0" xmlns="http://www.w3.org/2000/svg"
 width="700.000000pt" height="700.000000pt" viewBox="0 0 700.000000 700.000000"
 preserveAspectRatio="xMidYMid meet">
<metadata>
Created by potrace 1.14, written by Peter Selinger 2001-2017
</metadata>
<g transform="translate(0.000000,700.000000) scale(0.100000,-0.100000)"
fill="#000000" stroke="none">
<path d="M2290 6985 c-357 -68 -634 -348 -701 -705 -9 -50 -13 -692 -13 -2755
-1 -1479 2 -2719 7 -2755 46 -361 295 -645 649 -742 l83 -23 1185 0 c1314 0
1221 -4 1391 65 114 46 261 157 345 260 73 91 143 240 170 365 16 75 17 257
18 2780 1 1485 -2 2723 -6 2750 -4 28 -10 65 -13 83 -16 99 -90 259 -165 356
-42 54 -143 146 -205 187 -86 57 -161 92 -262 121 l-78 23 -1170 1 c-902 2
-1185 -1 -1235 -11z"/>
</g>
</svg>
